<svg id="velo-logo" xmlns="http://www.w3.org/2000/svg" xmlns:xlink="http://www.w3.org/1999/xlink" width="56.588" height="24" viewBox="0 0 56.588 24">
  <defs>
    <clipPath id="clip-path">
      <rect id="Rectangle_1" data-name="Rectangle 1" width="13.2" height="24" fill="#fff"/>
    </clipPath>
  </defs>
  <g id="Group_1" data-name="Group 1" clip-path="url(#clip-path)">
    <path id="Path_1" data-name="Path 1" d="M10.963,8.907c-.007-.7-.089-8.493.031-8.756A5.358,5.358,0,0,1,13.119.146c.093.182.018,4.227.048,7.335.067,7.027,0,14.914-.008,16.21,0,.2-.033.311-.274.313-1.657.011-1.919.058-1.931-.313-.115-3.531,0-7.762.022-8.436.017-.595-.279.132-5.171,5.346-1.1,1.176-1.3,1.763-1.7,1.321-.981-1.1-1.446-1.305-1.052-1.74.338-.372,3.633-4.008,4.241-4.638a23.378,23.378,0,0,0,1.942-2.179c0-.126-.078-.112-5.343-.111-3.644,0-3.77.048-3.818-.213-.01-.054-.014-1.945,0-2.015.042-.242.164-.206,5.152-.206,3.943,0,4.041.025,4.03-.12,0-.036-2.771-3.089-3.654-4.032-.219-.234-2.323-2.483-2.687-2.973-.137-.184-.022-.219,1.228-1.628.248-.28.346-.052,2.147,1.9,3.444,3.735,4.08,4.5,4.418,4.909C10.72,8.891,10.726,8.878,10.963,8.907Z" fill="#fff" fill-rule="evenodd"/>
  </g>
  <path id="Path_2" data-name="Path 2" d="M51.493,8.561a5.135,5.135,0,0,1,2.038.393A4.78,4.78,0,0,1,56.2,11.629a5.641,5.641,0,0,1,0,4.131,4.756,4.756,0,0,1-1.058,1.633,4.914,4.914,0,0,1-1.607,1.062,5.37,5.37,0,0,1-2.038.374,5.521,5.521,0,0,1-2.057-.374,5.2,5.2,0,0,1-1.607-1.062,5.171,5.171,0,0,1-1.058-1.633,5.918,5.918,0,0,1,0-4.131,4.939,4.939,0,0,1,1.058-1.613,4.777,4.777,0,0,1,1.607-1.062A5.278,5.278,0,0,1,51.493,8.561Zm0,7.888a2.548,2.548,0,0,0,.94-.177,2.522,2.522,0,0,0,.823-.551,2.448,2.448,0,0,0,.549-.865,3.233,3.233,0,0,0,0-2.321,2.449,2.449,0,0,0-.549-.865,2.282,2.282,0,0,0-.823-.531,2.325,2.325,0,0,0-.94-.2,2.373,2.373,0,0,0-.96.2,2.323,2.323,0,0,0-.8.531,2.69,2.69,0,0,0-.568.865,3.536,3.536,0,0,0,0,2.321,2.689,2.689,0,0,0,.568.865,2.346,2.346,0,0,0,1.763.728Z" fill="#fff"/>
  <path id="Path_3" data-name="Path 3" d="M42.277,18.515V4.43h2.567V18.515Z" fill="#fff"/>
  <path id="Path_4" data-name="Path 4" d="M40.482,16.193a5.361,5.361,0,0,1-1.8,1.908,4.919,4.919,0,0,1-2.743.728,5.467,5.467,0,0,1-2.038-.374,5.012,5.012,0,0,1-2.684-2.695,5.583,5.583,0,0,1-.372-2.066,5.217,5.217,0,0,1,.372-1.967A4.907,4.907,0,0,1,32.253,10.1a4.976,4.976,0,0,1,1.568-1.121,4.874,4.874,0,0,1,2.018-.413,5.1,5.1,0,0,1,2.057.393A4.044,4.044,0,0,1,39.4,10.016a4.473,4.473,0,0,1,.921,1.593,6.211,6.211,0,0,1,.313,2.006v.236a1.338,1.338,0,0,0-.02.216,1.115,1.115,0,0,0-.02.216H33.37a2.938,2.938,0,0,0,.313,1.023,2.9,2.9,0,0,0,.607.708,2.751,2.751,0,0,0,.8.413,3.322,3.322,0,0,0,.882.118,2.491,2.491,0,0,0,1.45-.393,2.992,2.992,0,0,0,.921-1.023Zm-2.332-3.738a1.574,1.574,0,0,0-.176-.571,1.8,1.8,0,0,0-.431-.59,2.114,2.114,0,0,0-.705-.452,2.523,2.523,0,0,0-1-.177,2.344,2.344,0,0,0-1.45.472,2.492,2.492,0,0,0-.882,1.318Z" fill="#fff"/>
  <path id="Path_5" data-name="Path 5" d="M18,4.8h2.938l2.978,8.668.523,1.85H24.6l.564-1.85,3.1-8.668H31.2L25.948,19.2H23.091Z" fill="#fff"/>
</svg>
